<?xml version="1.0" encoding="utf-8"?>
<!-- Generator: Adobe Illustrator 16.0.0, SVG Export Plug-In . SVG Version: 6.00 Build 0)  -->
<!DOCTYPE svg PUBLIC "-//W3C//DTD SVG 1.1//EN" "http://www.w3.org/Graphics/SVG/1.1/DTD/svg11.dtd">
<svg version="1.1" id="Layer_1" xmlns="http://www.w3.org/2000/svg" xmlns:xlink="http://www.w3.org/1999/xlink" x="0px" y="0px"
	 width="32px" height="32px" viewBox="0 0 32 32" enable-background="new 0 0 32 32" xml:space="preserve">
<g>
	<path fill-rule="evenodd" clip-rule="evenodd" d="M16.036,8.436c0.06-0.37,0.108-0.774,0.19-1.172
		c0.616-2.981,3.087-5.473,6.074-6.069c3.025-0.603,5.612,0.242,7.698,2.517c1.079,1.176,1.712,2.586,1.918,4.171
		c0.308,2.359-0.313,4.455-1.832,6.286c-0.079,0.096-0.159,0.138-0.289,0.138c-3.036-0.005-6.072-0.003-9.108-0.007
		c-0.114,0-0.169,0.033-0.22,0.136c-0.56,1.131-1.126,2.257-1.69,3.386c-0.021,0.041-0.044,0.082-0.08,0.15
		c-1.768-3.547-3.525-7.074-5.292-10.619c-0.028,0.049-0.048,0.08-0.064,0.112c-1.124,2.234-2.249,4.467-3.369,6.703
		c-0.051,0.101-0.104,0.137-0.22,0.137c-2.504-0.004-5.009-0.003-7.513-0.001c-0.093,0-0.154-0.026-0.214-0.097
		c-1.369-1.617-2.031-3.485-1.934-5.6C0.261,4.88,2.969,1.803,6.638,1.131c4.271-0.783,8.4,2.026,9.245,6.291
		C15.951,7.768,15.989,8.119,16.036,8.436z"/>
	<path fill-rule="evenodd" clip-rule="evenodd" d="M4.431,16.963c0.082,0,0.13,0,0.178,0c2.26,0,4.521-0.002,6.782,0.002
		c0.116,0,0.167-0.037,0.217-0.139c0.569-1.14,1.144-2.278,1.717-3.416c0.018-0.035,0.037-0.069,0.067-0.125
		c1.769,3.549,3.53,7.081,5.301,10.633c0.032-0.059,0.058-0.098,0.078-0.139c1.112-2.225,2.225-4.449,3.334-6.676
		c0.052-0.104,0.106-0.145,0.229-0.145c1.715,0.004,3.431,0.004,5.146,0.004c0.044,0,0.088,0,0.167,0
		c-3.877,4.441-7.734,8.863-11.607,13.301C12.172,25.832,8.313,21.41,4.431,16.963z"/>
</g>
</svg>
